<svg width="185" height="185" viewBox="0 0 185 185" fill="none" xmlns="http://www.w3.org/2000/svg">
<path d="M92.5 0C41.3553 0 0 41.4776 0 92.55C0 143.722 41.4552 185 92.4001 185C143.345 185 185 143.522 185 92.55C185 41.2777 143.645 0 92.5 0ZM92.5 33.382C108.283 33.382 123.167 39.4787 134.255 50.7726C145.343 61.8666 151.636 76.7585 151.636 92.55C151.636 108.341 145.543 123.233 134.255 134.327C123.167 145.421 108.283 151.718 92.5 151.718C76.7171 151.718 61.8332 145.621 50.7451 134.327C39.6571 123.133 33.3639 108.341 33.3639 92.55C33.3639 76.7585 39.6571 61.8666 50.7451 50.6726C61.8332 39.4787 76.7171 33.382 92.5 33.382Z" fill="#EE3D24"/>
<path d="M129.06 70.262C129.06 82.4554 119.171 92.45 106.884 92.45C94.6976 92.45 84.7084 82.5554 84.7084 70.262C84.7084 58.0686 94.5977 48.074 106.884 48.074C119.271 48.074 129.06 58.0686 129.06 70.262Z" fill="#EE3D24"/>
</svg>
